# xmcd CD database file
#
# Track frame offsets:
#	150
#	27232
#	46730
#	69267
#
# Disc length: 1296 seconds
#
# Revision: 3
# Processed by: cddbd v1.5.1PL2 Copyright (c) Steve Scherf et al.
# Submitted via: CDex 1.51
#
DISCID=27050e04
DTITLE=Michael Jackson - Tour Souvenir CD Single 2
DYEAR=1992
DGENRE=Pop
TTITLE0=Thriller
TTITLE1=Beat It
TTITLE2=Billie Jean
TTITLE3=Beat It - Moby's Sub Mix
EXTD=YEAR: 1992
EXTT0=
EXTT1=
EXTT2=
EXTT3=
PLAYORDER=
